<?xml version="1.0" encoding="utf-8"?>
<svg xmlns="http://www.w3.org/2000/svg"  x="0px" y="0px" viewBox="0 0 100 100" >
<title>Hobel </title>
<rect width="100%" height="100%" fill="none" stroke="pink" stroke-width="1"/>
<g transform="translate(0.000000,31.000000) scale(0.010, -0.010)">
<path id="spaene" d="M3906.2,2996.3c-251.6-67.8-483.4-255.9-597.2-487.8c-65.6-133.4-70-157.5-70-374.1s4.4-240.6,72.2-376.3c144.4-295.3,415.6-457.2,702.2-422.2c164.1,19.7,258.1,63.4,360.9,159.7c113.8,109.4,166.3,227.5,166.3,380.6c0,100.6-10.9,135.6-56.9,190.3c-70,85.3-181.6,109.4-284.4,59.1c-83.1-39.4-87.5-50.3-41.6-109.4c41.6-56.9,41.6-188.1,0-247.2c-45.9-65.6-161.9-94.1-273.4-70c-133.4,30.6-188.1,76.6-253.7,207.8c-148.8,301.9,32.8,673.8,365.3,752.5c306.3,74.4,603.8-102.8,770-455c61.3-129.1,70-168.4,70-332.5c0-168.4-6.6-201.3-74.4-339.1c-63.4-129.1-140-218.8-507.5-590.6c-269.1-275.6-437.5-461.6-448.4-500.9c-19.7-83.1,2.2-223.1,45.9-290.9l39.4-56.9l551.3,555.6c614.7,621.2,658.4,682.5,726.3,1023.7c74.4,374.1-52.5,763.4-341.3,1050C4558.1,2992,4240.9,3086,3906.2,2996.3z"/>

</g>

<path d="m 38,30 l10,-10" fill="pink" stroke="hotpink" stroke-width="1" opacity="0.5" />

<path d="m 2,52 h20 l35-35 l5,5 l-10,10 l20,20 q8,-10 2,-20 t2,-20 h18 q-10,10 -2,23 t-2,23 h-88 z" />
<circle cx="12" cy="38" r="10" fill="#c32e04" />

</svg>