<svg xmlns="http://www.w3.org/2000/svg"  x="50" y="30" viewBox="0 0 100 60" >
<title>Hobel </title>

<path id="spaene" d="M38 30 48.2 20.3C50.8 18.3 51.9 13.4 51.6 10.1 51.4 6.8 48.4 3.2 45.5 1.6 42.6 0 39.3 0.8 36.4 2.3c-2.9 1.5-3.8 4.2-4.1 7.4 0 3.4 1.6 6.9 6 7.9 3.3 0.8 7.2-2 7.2-5.4-0.2-2.6-1.9-3.5-4-2 2.7 5.5-6.9 5.3-5.6-1.8 4.4-11.2 21.6 0.9 6 13.8"/>

<path id="hobel" d="m 2,52 h20 l35-35 l5,5 l-10,10 l20,20 q8,-10 2,-20 t2,-20 h18 q-10,10 -2,23 t-2,23 h-88 z" />
<circle cx="12" cy="38" r="10" fill="#c32e04" />

</svg>

