<svg xmlns="http://www.w3.org/2000/svg" viewBox="0 0 550 550">
  <title>Bunk Bed</title>
	<desc>Stockbett</desc>
<style type="text/css">
.a{fill:#ebae73;stroke-width:1px;stroke:black;}
.b{fill:white;stroke-width:1px;stroke:black;}
</style>
<rect id="background" width="100%" height="100%" style="fill:#e4ebf2;stroke:black"/>
<path id="floor" d="m0,370 l 350,-90 l200,60 v210 h-550z" style="fill:#5d7380;stroke-width:1;stroke:#5d7380"/>

<g transform="translate(-35 -240)matrix(0.58132 0 0 0.54833 1174 184.58)">
<path  d="m-1306.3 573.8l1.4-36.1 23.3-3.2h42.4l45.4 4.8 42.5 13.4 36.8 15.6 36.4 17.7-0.5 32.3-55.6-27-91.9-10-80.2-7.5z" class="a"/>
<path  d="m-1304.9 572.3l-0.5 38.8-29.8 0.5 3.1-418.6 3-3.2 11.6-4.8 6.5 2.2 10.1 9.2-4 375.9z" class="a"/>
<path  d="m-1594.8 312.8l527.3 11.1-1-33.3-13.1-7.1-13.2-2-522.2-29.3-282.9 5.1 9.1 55.6h296z" class="b"/>
<path  d="m-1066.9 226.5v24.3l-234.9-9.9 0.1-22.4 234.8 8z" class="a"/>
<path  d="m-1601.5 767.3l521.5-112.4 0.2-15.8-13.5-19.7-19.5-23.3-221.6-23.6-575.6 82.7-1 66.7 270.7 65.7 38.8-20.2z" class="b"/>
<path  d="m-1130.6 204.5l-14.9 512.9 34.2-25.2 15-402.9-1.4-31.9-4.3-29.7-7.9-19.6-14.3-13-6.4 9.4z" class="a"/>
<path  d="m-1332.5 240.5l-544.1-12.5-1-35.3 545.2 24.8-0.1 23.1z" class="a"/>
<path  d="m-1604.6 928l14.2-753.6-12.2-18.2-9.1-12.1-14.1 2-10.1 11.1-16.2 767.7 35.4 8.1 12.1-5z" class="a"/>
<path  d="m-1872.3 851.1l-14.3 1.4-30-7.1 8.6-674.3 8.6-7.1h17.1l2.9 17.1 7.1 670z" class="a"/>
<path  d="m-1637.9 222.9l-241.4 3v-37.4l56.5-14.1 59.6-6.1 84.9 5.1 41.4 9.1-1 40.4z" class="a"/>
<path  d="m-1879.3 238.1l1 54.6 239.9 3 0.2-60.3-241.1 2.7z" class="a"/>
<path  d="m-1877.3 307.8l237.4 4-1 62.6-236.4-13.1v-53.5z" class="a"/>
<path  d="m-1648 653.3l-32.3-15.1-50.6-16.2-52.5-14.1-92.4-5 1.5 42.4 226.8 46.5 1-36.9-1.5-1.5z" class="a"/>
<path  d="m-1648 703.8l-225.3-50.5-1 56.6 225.3 52 1-54v-4z" class="a"/>
<path  d="m-1648 769.4l-226.3-51.5 0.5 55.6 223.8 55.6 1-55.6 1-4z" class="a"/>
<path  d="m-1602.4 828.3l0.7-60.7 457.2-98.6v50l-457.9 109.3z" class="a"/>
<path  d="m-1594.2 313.7l467.9 4.3-0.7 43.6-466.5 12.9-0.7-60.7z" class="a"/>
<path  d="m-1591.2 256l-0.5-22.1 465.8 19.8-0.5 19.9-464.8-17.5z" class="a"/>
<path  d="m-1590.6 175.8v16.4l463.6 32.9 0.3-16.4-463.9-32.9z" class="a"/>
<path  d="m-1081.7 716.6l30.9 8.9 20.7-454.6-5.6-30.8-5-24.7-12.7-16.6-12.8 10.7-15.5 507.1z" class="a"/>
<path  d="m-1107.6 590.8l54.6-15.6-24-10.3-30.4 7.3-0.2 18.6z" class="a"/>
<path  d="m-1110.1 678.3l0.6-20.4 30.1-8.6 23.5 12.1-49.5 19.5-4.7-2.6z" class="a"/>
<path  d="m-1102.9 476.4l55.1-5.5-27.3-11.4-27.8 2v14.9z" class="a"/>
<path  d="m-1098.8 364.3l42.4-3 0.6-39.4-41.6-0.5-1.4 42.9z" class="a"/>
</g>

</svg>
